<?xml version="1.0" encoding="UTF-8" standalone="no"?>
<!-- Created with Inkscape (http://www.inkscape.org/) -->

<svg
   xmlns:dc="http://purl.org/dc/elements/1.1/"
   xmlns:cc="http://creativecommons.org/ns#"
   xmlns:rdf="http://www.w3.org/1999/02/22-rdf-syntax-ns#"
   xmlns:svg="http://www.w3.org/2000/svg"
   xmlns="http://www.w3.org/2000/svg"
   xmlns:sodipodi="http://sodipodi.sourceforge.net/DTD/sodipodi-0.dtd"
   xmlns:inkscape="http://www.inkscape.org/namespaces/inkscape"
   width="16"
   height="16"
   viewBox="0 0 4.2333332 4.2333332"
   version="1.1"
   id="svg8"
   inkscape:version="0.92.3 (2405546, 2018-03-11)"
   sodipodi:docname="favicon.svg"
   inkscape:export-xdpi="384"
   inkscape:export-ydpi="384">
  <defs
     id="defs2" />
  <sodipodi:namedview
     id="base"
     pagecolor="#ffffff"
     bordercolor="#666666"
     borderopacity="1.0"
     inkscape:pageopacity="0.0"
     inkscape:pageshadow="2"
     inkscape:zoom="5.6568542"
     inkscape:cx="-45.560135"
     inkscape:cy="10.999979"
     inkscape:document-units="mm"
     inkscape:current-layer="layer1"
     showgrid="false"
     inkscape:snap-global="false"
     inkscape:window-width="1280"
     inkscape:window-height="753"
     inkscape:window-x="-4"
     inkscape:window-y="-4"
     inkscape:window-maximized="1"
     fit-margin-top="0"
     fit-margin-left="0"
     fit-margin-right="0"
     fit-margin-bottom="0"
     units="px" />
  <metadata
     id="metadata5">
    <rdf:RDF>
      <cc:Work
         rdf:about="">
        <dc:format>image/svg+xml</dc:format>
        <dc:type
           rdf:resource="http://purl.org/dc/dcmitype/StillImage" />
        <dc:title />
      </cc:Work>
    </rdf:RDF>
  </metadata>
  <g
     inkscape:label="Layer 1"
     inkscape:groupmode="layer"
     id="layer1"
     transform="translate(75.670832,-165.2375)">
    <path
       style="fill:#2a5446;fill-opacity:1;stroke:none;stroke-width:0.11342479;stroke-linecap:round;stroke-linejoin:round;stroke-miterlimit:4;stroke-dasharray:none;stroke-opacity:1"
       d="m -73.45168,168.9306 c 1.349517,0 1.606819,3.37308 1.606819,3.37308 l -2.867071,-0.0179 c 0,0 -0.08926,-3.35517 1.260252,-3.35517 z"
       id="path865"
       inkscape:connector-curvature="0"
       sodipodi:nodetypes="zccz" />
    <path
       style="fill:#c0c0c0;fill-opacity:1;stroke:none;stroke-width:0.11342479;stroke-linecap:round;stroke-linejoin:round;stroke-miterlimit:4;stroke-dasharray:none;stroke-opacity:1"
       d="m -73.13662,168.19529 v 0.76381 c 0,0.40438 -0.703639,0.43747 -0.703639,0.0631 v -0.75199"
       id="path825"
       inkscape:connector-curvature="0"
       sodipodi:nodetypes="czzc" />
    <ellipse
       style="opacity:1;fill:#c0c0c0;fill-opacity:1;stroke:none;stroke-width:0.11342479;stroke-linecap:round;stroke-linejoin:round;stroke-miterlimit:4;stroke-dasharray:none;stroke-opacity:1"
       id="path830"
       cx="-73.66172"
       cy="167.30711"
       rx="1.5648111"
       ry="1.5184095" />
    <path
       style="opacity:1;fill:#ffffff;fill-opacity:1;stroke:none;stroke-width:0.11342479;stroke-linecap:round;stroke-linejoin:round;stroke-miterlimit:4;stroke-dasharray:none;stroke-opacity:1"
       d="m -74.428317,166.89235 a 0.52510576,0.57268572 4.0348 0 0 -0.564322,0.53405 0.52510576,0.57268572 4.0348 0 0 0.483249,0.60846 0.52510576,0.57268572 4.0348 0 0 0.564322,-0.53404 0.52510576,0.57268572 4.0348 0 0 -0.483249,-0.60847 z"
       id="path832"
       inkscape:connector-curvature="0" />
    <path
       inkscape:connector-curvature="0"
       id="path835"
       d="m -74.45807,167.31162 a 0.11552328,0.15236588 4.052773 0 0 -0.126014,0.1438 0.11552328,0.15236588 4.052773 0 0 0.104446,0.16017 0.11552328,0.15236588 4.052773 0 0 0.126017,-0.14379 0.11552328,0.15236588 4.052773 0 0 -0.104449,-0.16018 z"
       style="opacity:1;fill:#804040;fill-opacity:1;stroke:#804040;stroke-width:0.11342479;stroke-linecap:round;stroke-linejoin:round;stroke-miterlimit:4;stroke-dasharray:none;stroke-opacity:1" />
    <path
       inkscape:connector-curvature="0"
       id="path853"
       d="m -73.213134,166.97868 a 0.52510576,0.57268572 4.0348 0 0 -0.564322,0.53405 0.52510576,0.57268572 4.0348 0 0 0.483249,0.60845 0.52510576,0.57268572 4.0348 0 0 0.564323,-0.53404 0.52510576,0.57268572 4.0348 0 0 -0.48325,-0.60846 z"
       style="opacity:1;fill:#ffffff;fill-opacity:1;stroke:none;stroke-width:0.11342479;stroke-linecap:round;stroke-linejoin:round;stroke-miterlimit:4;stroke-dasharray:none;stroke-opacity:1" />
    <path
       style="opacity:1;fill:#804040;fill-opacity:1;stroke:#804040;stroke-width:0.11342479;stroke-linecap:round;stroke-linejoin:round;stroke-miterlimit:4;stroke-dasharray:none;stroke-opacity:1"
       d="m -73.242886,167.39795 a 0.11552328,0.15236588 4.052773 0 0 -0.126016,0.14379 0.11552328,0.15236588 4.052773 0 0 0.104448,0.16018 0.11552328,0.15236588 4.052773 0 0 0.126015,-0.1438 0.11552328,0.15236588 4.052773 0 0 -0.104447,-0.16017 z"
       id="path855"
       inkscape:connector-curvature="0" />
    <path
       style="fill:none;stroke:#000000;stroke-width:0.11342479;stroke-linecap:round;stroke-linejoin:round;stroke-miterlimit:4;stroke-dasharray:none;stroke-opacity:1"
       d="m -73.189041,168.51035 c -0.24102,0.0842 -0.483246,0.0946 -0.483246,0.0946"
       id="path857"
       inkscape:connector-curvature="0"
       sodipodi:nodetypes="cc" />
    <path
       style="fill:#804040;fill-opacity:1;stroke:none;stroke-width:0.11342479;stroke-linecap:round;stroke-linejoin:round;stroke-miterlimit:4;stroke-dasharray:none;stroke-opacity:1"
       d="m -72.464483,166.0409 c -0.535607,-0.56743 -1.701338,-1.02979 -1.795857,-0.98775 -0.09452,0.042 0.01051,0.38879 0.05251,0.55691 -1.071214,0.23119 -1.354767,1.17692 -1.344267,1.32402 0.01051,0.14712 1.46508,-0.58889 2.509999,-0.15762 1.063606,0.43898 0.487152,2.30922 0.613178,2.34075 0.126023,0.0316 0.731089,-1.17436 0.584061,-1.95196 0,0 0.346569,0.0736 0.367573,-0.0421 0.02102,-0.11557 -0.325566,-0.88268 -0.987195,-1.08233 z"
       id="path859"
       inkscape:connector-curvature="0"
       sodipodi:nodetypes="cscsssczc" />
  </g>
</svg>
